HIERARCHY
ROOT Hips
{
  OFFSET 2.26061 22.2878 23.7974
  CHANNELS 6 Xposition Yposition Zposition Zrotation Xrotation Yrotation
  JOINT LeftUpLeg
  {
    OFFSET 8.64259 1.95398 -2.38835
    CHANNELS 3 Zrotation Xrotation Yrotation
    JOINT LeftLeg
    {
      OFFSET 43.7702 0 0
      CHANNELS 3 Zrotation Xrotation Yrotation
      JOINT LeftFoot
      {
        OFFSET 40.6238 0 0
        CHANNELS 3 Zrotation Xrotation Yrotation
        JOINT LeftToeBase
        {
          OFFSET 12.7242 0 0
          CHANNELS 3 Zrotation Xrotation Yrotation
          End Site
          {
            OFFSET 0 0 0
          }
        }
      }
    }
  }
  JOINT RightUpLeg
  {
    OFFSET -8.2249 1.95398 -2.59336
    CHANNELS 3 Zrotation Xrotation Yrotation
    JOINT RightLeg
    {
      OFFSET 43.5653 0 0
      CHANNELS 3 Zrotation Xrotation Yrotation
      JOINT RightFoot
      {
        OFFSET 40.6238 0 0
        CHANNELS 3 Zrotation Xrotation Yrotation
        JOINT RightToeBase
        {
          OFFSET 12.7242 0 0
          CHANNELS 3 Zrotation Xrotation Yrotation
          End Site
          {
            OFFSET 0 0 0
          }
        }
      }
    }
  }
  JOINT Spine
  {
    OFFSET 0.165834 0.87714 6.61349
    CHANNELS 3 Zrotation Xrotation Yrotation
    JOINT Spine1
    {
      OFFSET 7.38963 1.71661e-005 0
      CHANNELS 3 Zrotation Xrotation Yrotation
      JOINT Spine2
      {
        OFFSET 11.9445 1.14441e-005 0
        CHANNELS 3 Zrotation Xrotation Yrotation
        JOINT Spine3
        {
          OFFSET 14.7254 4.19617e-005 0
          CHANNELS 3 Zrotation Xrotation Yrotation
          JOINT Spine4
          {
            OFFSET 10.9679 0 0
            CHANNELS 3 Zrotation Xrotation Yrotation
            JOINT RightShoulder
            {
              OFFSET 2.46616 -1.6653 3.69651
              CHANNELS 3 Zrotation Xrotation Yrotation
              JOINT RightArm
              {
                OFFSET 13.0012 0 0
                CHANNELS 3 Zrotation Xrotation Yrotation
                JOINT RightForeArm
                {
                  OFFSET 28.7848 1.52588e-005 0
                  CHANNELS 3 Zrotation Xrotation Yrotation
                  JOINT RightHand
                  {
                    OFFSET 26.5688 1.52588e-005 0
                    CHANNELS 3 Zrotation Xrotation Yrotation
                    End Site
                    {
                      OFFSET 0 0 0
                    }
                  }
                }
              }
            }
            JOINT LeftShoulder
            {
              OFFSET 2.38034 -1.29275 -3.7523
              CHANNELS 3 Zrotation Xrotation Yrotation
              JOINT LeftArm
              {
                OFFSET 16.3182 6.10351e-005 0
                CHANNELS 3 Zrotation Xrotation Yrotation
                JOINT LeftForeArm
                {
                  OFFSET 27.0901 0 0
                  CHANNELS 3 Zrotation Xrotation Yrotation
                  JOINT LeftHand
                  {
                    OFFSET 24.5451 1.52588e-005 0
                    CHANNELS 3 Zrotation Xrotation Yrotation
                    End Site
                    {
                      OFFSET 0 0 0
                    }
                  }
                }
              }
            }
            JOINT Neck
            {
              OFFSET 5.0226 -0.0266342 0
              CHANNELS 3 Zrotation Xrotation Yrotation
              JOINT Head
              {
                OFFSET 6.69363 2.86102e-005 0
                CHANNELS 3 Zrotation Xrotation Yrotation
                End Site
                {
                  OFFSET 0 0 0
                }
              }
            }
          }
        }
      }
    }
  }
}
MOTION
Frames:	17
Frame Time:	0.0416667
19.1158 86.0056 -3.65956 -73.4481 -31.014 -93.2461 -171.899 7.91291 102.924 -25.7594 15.0057 3.78546 36.2469 -11.0975 -10.657 41.5774 12.1735 22.1438 166.185 56.8245 94.7715 -53.001 7.75879 5.26657 73.6456 -4.49338 -2.19101 49.2065 0.054326 -8.30036 -0.434412 8.34166 -88.9482 10.189 -0.385497 2.11935 -1.48362 -0.291841 2.13426 -24.0075 -1.00452 1.90566 -3.99482 -1.00449 1.90566 91.0687 -52.9254 -98.5788 17.4535 -15.5807 25.8046 -22.422 -33.6853 -59.4622 -5.25316 -0.645738 -0.335136 -100.551 -49.6546 63.0798 -8.36524 -0.506559 20.1783 18.9006 -0.876126 -82.7412 21.8813 1.90854 4.91123 4.19162 -12.5613 13.975 12.4182 -16.6477 -16.0745 
9.63694 86.4425 -1.23808 -73.3334 -26.7331 -97.9797 -175.039 4.43611 97.4438 -30.4407 19.0144 4.46068 34.8966 -12.6174 -7.91592 30.6696 0.213628 15.1613 167.594 54.5723 93.0419 -56.5332 9.71154 4.18139 76.8128 -5.85071 -2.70841 36.8883 0.322783 -3.34447 -0.422196 8.06625 -88.9857 10.7408 -0.373042 2.05246 -0.931754 -0.282339 2.06687 -23.4565 -0.972553 1.84558 -3.44381 -0.972527 1.84558 91.6366 -54.6279 -97.4184 12.0392 -12.9491 20.6287 -22.8411 -31.2774 -59.8206 -8.76169 -0.582761 -0.99683 -101.315 -50.4944 62.3008 -14.8095 6.58306 23.6471 14.8812 2.94762 -70.2572 20.6197 1.54784 3.71322 2.13293 -11.6767 16.7676 13.8978 -15.7316 -13.4027 
0.864383 86.0265 0.820151 -72.7407 -20.6006 -99.4335 -174.954 9.39615 94.8859 -48.1931 18.2229 3.03616 39.0757 -11.0317 -6.47216 32.6471 2.33684 13.9485 169.597 49.4275 94.8745 -59.0259 9.20953 3.01688 83.2219 -8.02055 -3.24764 29.0317 0.162992 -2.23856 -0.0646275 7.9345 -89.2723 11.0016 0.208412 1.4281 -0.670138 0.271097 1.41755 -23.199 -0.230368 1.42474 -3.18639 -0.230373 1.42473 92.6606 -54.4451 -95.9535 8.11756 -11.9412 12.8996 -23.4592 -28.7027 -62.783 -13.7094 -0.675768 -0.166065 -101.819 -51.592 62.002 -21.9005 12.477 25.8714 14.024 7.28433 -59.0771 15.5384 1.00895 2.52913 5.07256 -10.1429 17.0236 12.659 -13.9273 -9.15758 
-7.45134 86.0956 2.32268 -72.7826 -13.8863 -99.7781 -172.977 17.4814 93.63 -64.5344 18.117 1.02834 39.6815 -10.9171 -7.12102 34.6868 4.41876 12.3051 172.821 41.8059 96.6422 -57.5023 9.96518 1.25848 86.924 -10.1196 -3.73293 31.8898 0.226832 -1.91505 0.412312 8.00935 -89.4771 10.8501 1.06277 0.940659 -0.820777 1.10317 0.892966 -23.3551 0.730956 1.21656 -3.34245 0.730935 1.21654 92.2096 -53.081 -96.8563 7.40098 -10.8501 4.23668 -25.3568 -25.498 -67.5795 -17.9893 -0.842726 0.664652 -101.155 -51.3608 62.8556 -29.2362 16.8838 27.4702 11.2905 12.0276 -49.0991 8.52261 0.564225 2.4877 7.33414 -8.97425 15.044 14.5261 -12.1618 -4.7153 
-15.5926 86.5271 3.30699 -72.0374 -7.50722 -100.102 -170.564 28.1945 92.4814 -76.5305 19.7325 -0.211477 40.961 -10.6526 -3.59246 37.6205 7.15138 8.01226 175.505 34.1851 96.8462 -53.9824 7.18781 -0.318595 87.6658 -11.1416 -4.012 36.322 0.377805 -1.79791 0.982603 8.00132 -89.6003 10.8666 2.14115 0.594108 -0.802681 2.16519 0.499253 -23.3482 1.86356 1.21032 -3.33556 1.86359 1.21034 91.533 -49.9309 -98.4856 9.6555 -10.5373 -2.1617 -29.4091 -18.6194 -75.537 -20.8229 -0.696194 -0.364339 -100.431 -51.8186 64.0531 -35.0046 20.6612 29.5923 10.2315 17.1186 -43.9353 -2.47948 -0.0722658 1.73264 11.2741 -7.3752 16.2566 11.0116 -11.035 -3.58565 
-24.5651 87.7716 3.58853 -71.2764 -4.62749 -101.456 -170.09 38.6318 90.2278 -80.6687 16.8341 -0.292155 42.9876 -9.27445 -3.42699 34.7392 4.51475 9.94739 175.609 25.2699 94.6579 -47.1774 2.72171 -0.969185 85.9874 -10.6227 -4.00652 39.4633 0.512297 -0.640513 1.31475 7.82142 -89.547 11.2262 2.82744 0.623394 -0.441715 2.85213 0.498244 -22.9961 2.50929 1.44479 -2.9835 2.5093 1.44478 92.0054 -46.9233 -98.3644 13.1163 -11.0855 -6.71684 -33.4629 -11.3514 -84.2246 -22.1639 -0.64896 -0.6513 -99.6074 -51.2548 65.0237 -41.568 22.6908 35.2809 15.9571 22.5836 -47.9951 -12.4936 -0.469413 -0.299731 10.0591 -7.49618 15.7596 11.5027 -10.6638 -1.63789 
-34.3391 90.3106 3.38513 -71.9761 -2.28629 -102.504 -170.579 44.2478 88.8408 -75.1918 15.1063 -0.555524 44.507 -8.93327 -1.67219 32.737 2.58049 11.1395 175.96 15.032 92.3723 -38.7351 -4.87258 -2.89329 76.1452 -7.0059 -3.33499 42.1803 0.634515 -0.474333 1.57397 7.79373 -89.4188 11.2771 3.40297 0.819664 -0.389515 3.43576 0.668934 -22.9519 2.9992 1.80527 -2.93921 2.99919 1.80526 92.668 -45.4139 -97.609 14.613 -13.0612 -10.3306 -36.3572 -4.15205 -92.5528 -23.9766 -1.02435 0.947408 -98.7169 -49.4737 65.6807 -48.4346 23.0757 42.6203 22.1188 21.6203 -56.113 -16.8693 -0.565896 -0.608024 9.7981 -7.95793 14.5698 10.4703 -10.7776 -1.233 
-44.6796 93.4436 3.40499 -72.2946 -0.967962 -102.62 -171.643 46.0097 87.659 -61.5404 12.2138 -1.03716 44.8519 -9.34327 -3.75393 30.9701 0.684397 13.5125 174.904 7.04077 89.8109 -29.7074 -12.0416 -3.71593 54.0303 0.943421 0.900705 48.8623 1.27094 2.37275 1.7281 7.73986 -89.3441 11.3826 3.74458 0.92954 -0.283195 3.78187 0.763612 -22.851 3.29197 2.01298 -2.83835 3.292 2.01299 92.9461 -44.6795 -97.3017 15.188 -14.3155 -10.903 -37.2087 3.00411 -99.492 -24.1715 -1.11907 1.29218 -97.9421 -47.4794 66.1192 -53.9659 23.7579 47.6921 20.4731 16.5891 -59.4092 -15.9618 -0.151515 -3.85809 10.8657 -8.21954 14.6047 8.65048 -11.3417 -3.04531 
-55.1965 95.6934 3.79866 -72.2323 0.40619 -102.457 -171.487 44.6278 86.1189 -41.9402 15.262 -2.75842 41.8386 -11.6566 -6.61515 32.0875 1.82424 13.208 174.191 2.57734 87.9053 -27.0221 -18.0583 -5.31267 40.4801 5.76969 5.67197 39.1831 0.523546 -2.30843 1.88676 7.6628 -89.373 11.5383 4.04684 0.833869 -0.126455 4.07959 0.654662 -22.7017 3.60896 2.01295 -2.68907 3.60893 2.01294 93.3726 -42.9332 -96.9412 17.0949 -14.4642 -8.2648 -37.6758 8.02405 -104.074 -27.2159 -1.34494 1.87448 -97.9593 -47.1619 65.98 -56.5663 24.0585 50.5553 17.6929 11.3423 -62.0679 -18.0837 0.109322 -5.84073 11.463 -7.47578 16.1903 7.55743 -11.1011 -4.07461 
-65.9052 97.2944 4.31847 -72.1699 2.22709 -101.063 -171.58 40.4791 85.6966 -19.0903 19.3003 -4.56134 39.2037 -12.9972 -9.46064 33.8973 3.67787 11.0034 175.53 0.506553 88.1417 -31.498 -19.2713 -7.38972 39.104 6.3148 6.38722 29.6919 0.345331 -6.0886 2.05705 7.55011 -89.5459 11.7718 4.30442 0.451195 0.10793 4.32008 0.260945 -22.4772 3.96953 1.72596 -2.46455 3.96952 1.72596 93.6786 -42.993 -96.4152 17.1493 -12.8599 -5.06813 -34.6744 7.74767 -104.51 -30.4599 -1.27865 1.07622 -97.5603 -47.7317 66.7794 -57.4593 23.6564 50.9607 17.2788 8.69529 -64.4596 -17.952 0.241845 -6.80853 10.9681 -7.11103 17.5597 7.24254 -11.1266 -5.76363 
-76.0421 97.7055 4.90859 -73.9069 3.84711 -98.1904 -171.954 37.018 86.6042 -7.1352 13.7 -5.36964 39.4447 -12.5099 -11.824 37.9356 7.51775 10.5375 177.276 0.457285 89.7556 -41.3886 -12.6061 -6.92764 41.4841 4.83298 4.72804 28.665 0.303929 -4.71825 2.1021 7.54089 -89.8986 11.8053 4.22827 -0.247119 0.141177 4.21327 -0.433318 -22.4473 4.1067 1.03729 -2.43462 4.10668 1.03728 93.7578 -44.276 -96.0374 16.3255 -9.69576 -1.69594 -30.9553 3.67282 -100.507 -30.7774 -1.16379 0.461693 -97.2052 -49.0935 67.7691 -55.8151 21.8055 49.1688 17.3266 7.9498 -64.9444 -15.7222 0.0947049 -5.91333 9.7178 -6.55466 17.2546 8.12693 -10.4298 -6.13248 
-85.9508 97.0083 5.31615 -76.8285 3.25134 -96.734 -171.064 34.1396 84.6347 -6.34363 10.7134 -6.76426 39.4683 -12.2824 -13.7341 37.1474 6.79952 11.7807 177.584 2.14612 89.8819 -54.6856 -6.21506 -5.87531 40.7502 4.42486 4.41977 25.6561 0.292524 -4.89333 1.83753 7.65776 -90.1067 11.5727 3.60557 -0.584434 -0.0934938 3.57634 -0.742759 -22.6685 3.61428 0.527665 -2.65584 3.6143 0.527662 93.7219 -46.6387 -95.6697 14.5273 -6.461 1.95578 -27.6326 -1.87868 -94.198 -32.337 -1.12908 0.0914227 -97.416 -50.9218 68.0641 -51.8916 20.1211 45.5351 19.1653 8.9986 -64.6382 -13.3775 -0.0744269 -4.537 7.64508 -6.20484 16.4742 9.99985 -9.74326 -6.00782 
-95.6778 95.116 5.41123 -79.4149 3.03892 -96.2923 -170.081 30.691 81.7845 -10.1103 17.495 -7.67285 40.297 -11.8736 -11.2969 34.8801 4.70947 8.53647 177.059 7.17457 88.7075 -70.4846 0.800348 -4.28331 41.2 3.24499 3.33168 23.4119 0.263035 -4.76217 1.53219 7.75966 -90.1553 11.3655 2.97646 -0.607658 -0.302224 2.94685 -0.738184 -22.8647 3.02134 0.315816 -2.85208 3.02137 0.315814 93.4986 -49.0667 -95.6028 13.7086 -3.55689 5.8049 -23.0938 -6.55264 -86.2756 -32.0636 -1.02242 -0.426269 -99.4704 -53.2031 65.8957 -46.0598 18.4145 41.4684 21.0282 10.3593 -63.6807 -8.89386 -0.236563 -2.01425 5.01561 -5.20092 15.4514 12.1955 -8.29305 -5.46116 
-105.134 92.8156 5.1448 -81.8257 4.74968 -96.9872 -167.561 30.8178 79.4385 -30.032 19.7571 -8.68333 58.7561 -0.331489 2.76834 28.1525 -0.518891 -0.0356012 178.215 14.4206 86.8619 -85.5263 5.36845 -3.68063 43.2933 1.13219 1.33669 25.8437 0.281326 -4.84234 1.23002 7.90855 -89.886 11.0595 2.5014 -0.013355 -0.609082 2.49839 -0.123509 -23.1625 2.38969 0.739476 -3.1498 2.38971 0.739471 94.2083 -51.4475 -94.1251 14.3745 -0.0466704 6.74022 -24.063 -11.7055 -74.6294 -27.9947 -1.50789 2.11891 -101.341 -54.4784 63.7358 -38.4398 16.8671 37.0409 21.8508 11.1623 -62.6219 -4.36374 -0.135149 -0.463835 2.80895 -3.76151 11.0888 15.1385 -5.67709 -2.71468 
-114.105 90.5708 4.17884 -81.5383 5.23477 -99.3834 -167.497 29.4969 77.0395 -40.4642 20.9364 -8.07286 65.3677 7.04798 8.76247 35.4776 5.28081 -2.61455 -178.379 26.4092 84.7002 -97.0311 7.56402 -3.2391 42.0733 -0.147335 0.240598 28.8903 0.362716 -5.60183 0.645969 7.91863 -89.3518 11.0291 1.58639 1.13746 -0.641266 1.63494 1.06653 -23.1772 1.17125 1.56162 -3.16456 1.17124 1.56162 94.4667 -52.4848 -93.5832 16.0925 1.00291 6.23884 -21.51 -17.6093 -63.1824 -22.2313 -1.97106 5.42232 -102.611 -55.085 62.2169 -28.8649 16.6271 29.7859 24.4627 13.0682 -62.5146 1.72096 0.2035 3.89169 5.26599 -1.21281 6.78486 14.2675 -2.33947 -0.479031 
-123.115 89.5714 3.34472 -81.1393 3.98031 -100.956 -169.182 24.7905 75.9329 -42.7975 23.0637 -7.36169 67.4479 9.93938 11.5663 41.8108 10.0765 -1.60696 -174.836 37.5003 82.9657 -101.291 8.70664 -3.01063 44.9129 -1.43055 -0.869003 30.4957 0.432401 -7.02234 0.0846385 7.82866 -88.9901 11.207 0.638098 1.94771 -0.465229 0.723225 1.91775 -22.9887 0.0233673 2.0494 -2.97605 0.0233796 2.0494 93.7902 -53.888 -94.3839 15.5853 0.0153227 9.10407 -19.0525 -24.4754 -52.8782 -12.5075 -1.5768 7.49413 -102.974 -53.7201 61.2037 -19.5335 13.2571 22.5441 26.1298 13.1913 -63.2602 7.98149 0.951482 7.09295 7.19623 0.524378 4.24898 12.6492 -0.227391 0.0324872 
-132.404 90.5505 3.0256 -81.0025 4.09234 -99.631 -171.292 17.4732 78.0512 -39.712 24.1116 -6.02865 67.2055 9.3713 10.1439 43.2459 11.461 1.32256 -172.497 44.6216 83.8707 -95.6595 7.03099 -3.51723 49.3716 -1.53158 -0.946529 32.0979 0.46225 -8.46941 -0.128696 7.66648 -89.0397 11.537 0.193326 1.89371 -0.135263 0.276461 1.88336 -22.6597 -0.384666 1.86429 -2.64707 -0.384656 1.8643 93.9379 -54.9063 -94.0176 15.085 -1.67009 14.7886 -21.3083 -32.0608 -49.2443 1.82082 -0.575326 7.21244 -100.473 -52.7508 64.3272 -13.9203 4.47823 18.6727 26.3198 7.13821 -70.7471 13.6144 1.78886 8.97833 6.22242 1.76423 2.06466 12.9253 1.60327 1.48792 
